<svg width="130" height="50" viewBox="0 0 130 50" fill="none" xmlns="http://www.w3.org/2000/svg">
<path d="M20.9887 40.0419C20.4884 40.0319 20.0119 39.8261 19.6617 39.4687C19.3114 39.1113 19.1153 38.6308 19.1154 38.1303V16.2496C19.2343 11.9906 21.0097 7.946 24.0641 4.97563C27.1186 2.00525 31.2112 0.343399 35.4718 0.343399C39.7324 0.343399 43.825 2.00525 46.8795 4.97563C49.9339 7.946 51.7093 11.9906 51.8282 16.2496V19.0149C51.8282 19.5219 51.6268 20.0081 51.2683 20.3666C50.9098 20.7251 50.4236 20.9265 49.9167 20.9265C49.4097 20.9265 48.9235 20.7251 48.565 20.3666C48.2065 20.0081 48.0051 19.5219 48.0051 19.0149V16.2114C47.9013 12.9565 46.5354 9.86965 44.1962 7.60394C41.8571 5.33822 38.7283 4.07135 35.4718 4.07135C32.2153 4.07135 29.0865 5.33822 26.7473 7.60394C24.4082 9.86965 23.0423 12.9565 22.9385 16.2114V38.1303C22.9385 38.3846 22.8878 38.6363 22.7894 38.8708C22.6909 39.1052 22.5467 39.3177 22.3651 39.4957C22.1836 39.6737 21.9683 39.8137 21.732 39.9075C21.4956 40.0013 21.2429 40.047 20.9887 40.0419Z" fill="white"/>
<path d="M46.0426 49.8417H14.1836C13.6767 49.8417 13.1905 49.6403 12.832 49.2818C12.4735 48.9233 12.2721 48.4371 12.2721 47.9302C12.2721 47.4232 12.4735 46.937 12.832 46.5785C13.1905 46.22 13.6767 46.0186 14.1836 46.0186H46.0426C49.365 46.0186 52.5513 44.6988 54.9005 42.3496C57.2498 40.0003 58.5696 36.814 58.5696 33.4917C58.5696 30.1693 57.2498 26.983 54.9005 24.6338C52.5513 22.2845 49.365 20.9647 46.0426 20.9647H31.7825C31.2756 20.9647 30.7894 20.7633 30.4309 20.4048C30.0724 20.0464 29.871 19.5601 29.871 19.0532C29.871 18.5462 30.0724 18.06 30.4309 17.7015C30.7894 17.343 31.2756 17.1416 31.7825 17.1416H46.0426C50.3789 17.1416 54.5376 18.8642 57.6038 21.9304C60.6701 24.9967 62.3927 29.1554 62.3927 33.4917C62.3927 37.828 60.6701 41.9867 57.6038 45.0529C54.5376 48.1191 50.3789 49.8417 46.0426 49.8417Z" fill="white"/>
<path d="M14.1836 49.8417C10.4219 49.8417 6.81423 48.3474 4.15429 45.6874C1.49434 43.0275 0 39.4198 0 35.6581C0 31.8963 1.49434 28.2887 4.15429 25.6287C6.81423 22.9688 10.4219 21.4745 14.1836 21.4745C14.6906 21.4745 15.1768 21.6758 15.5353 22.0343C15.8938 22.3928 16.0952 22.879 16.0952 23.386C16.0952 23.893 15.8938 24.3792 15.5353 24.7377C15.1768 25.0961 14.6906 25.2975 14.1836 25.2975C11.4358 25.2975 8.80059 26.3891 6.85761 28.3321C4.91463 30.275 3.82308 32.9103 3.82308 35.6581C3.82308 38.4059 4.91463 41.0411 6.85761 42.9841C8.80059 44.9271 11.4358 46.0186 14.1836 46.0186C14.6906 46.0186 15.1768 46.22 15.5353 46.5785C15.8938 46.937 16.0952 47.4232 16.0952 47.9302C16.0952 48.4371 15.8938 48.9233 15.5353 49.2818C15.1768 49.6403 14.6906 49.8417 14.1836 49.8417Z" fill="white"/>
<path d="M35.389 25.2975C34.9691 25.2995 34.5607 25.1604 34.2293 24.9025L28.4819 20.5187C28.2476 20.3386 28.0579 20.107 27.9275 19.8418C27.7971 19.5766 27.7296 19.285 27.7301 18.9895C27.7315 18.6934 27.8027 18.4019 27.9377 18.1384C28.0728 17.875 28.2679 17.647 28.5074 17.473L34.293 13.1529C34.7003 12.8504 35.211 12.7221 35.7129 12.7962C36.2148 12.8703 36.6667 13.1407 36.9692 13.5479C37.2717 13.9552 37.4 14.466 37.3259 14.9678C37.2518 15.4697 36.9814 15.9216 36.5741 16.2241L32.8148 19.0149L36.5486 21.8568C36.8628 22.1021 37.093 22.4389 37.2075 22.8206C37.322 23.2024 37.3151 23.6103 37.1878 23.988C37.0605 24.3657 36.8191 24.6945 36.4969 24.9291C36.1746 25.1637 35.7875 25.2924 35.389 25.2975Z" fill="white"/>
<path d="M45.8005 39.2263H30.2788C29.7718 39.2263 29.2856 39.0249 28.9271 38.6664C28.5686 38.3079 28.3672 37.8217 28.3672 37.3147C28.3672 36.8078 28.5686 36.3216 28.9271 35.9631C29.2856 35.6046 29.7718 35.4032 30.2788 35.4032H45.8005C46.3075 35.4032 46.7937 35.6046 47.1522 35.9631C47.5106 36.3216 47.712 36.8078 47.712 37.3147C47.712 37.8217 47.5106 38.3079 47.1522 38.6664C46.7937 39.0249 46.3075 39.2263 45.8005 39.2263Z" fill="#00B1FF"/>
<path d="M39.5052 32.1154H30.2788C29.7718 32.1154 29.2856 31.914 28.9271 31.5555C28.5686 31.197 28.3672 30.7108 28.3672 30.2038C28.3672 29.6968 28.5686 29.2106 28.9271 28.8522C29.2856 28.4937 29.7718 28.2923 30.2788 28.2923H39.5052C40.0121 28.2923 40.4983 28.4937 40.8568 28.8522C41.2153 29.2106 41.4167 29.6968 41.4167 30.2038C41.4167 30.7108 41.2153 31.197 40.8568 31.5555C40.4983 31.914 40.0121 32.1154 39.5052 32.1154Z" fill="#00B1FF"/>
<path d="M82.6677 30.79H73.4541V8.82007H82.3746C84.3295 8.67521 86.2685 9.26101 87.8161 10.464C88.4105 11.0152 88.8771 11.6899 89.1831 12.4406C89.4891 13.1913 89.6271 13.9999 89.5875 14.8096C89.6157 15.8756 89.3178 16.9248 88.7337 17.817C88.163 18.6654 87.3505 19.3225 86.4016 19.7031C87.4234 20.0443 88.314 20.6944 88.9503 21.5637C89.5947 22.4609 89.9301 23.5432 89.9061 24.6476C89.9651 25.4973 89.8305 26.3493 89.5127 27.1395C89.1948 27.9298 88.7019 28.6376 88.071 29.2098C86.5186 30.3694 84.6003 30.9304 82.6677 30.79ZM82.3491 12.2481H77.1243V17.97H82.3491C84.6557 17.97 85.8154 17.0142 85.8154 15.1281C85.837 14.7333 85.7705 14.3386 85.6206 13.9727C85.4707 13.6068 85.2412 13.2789 84.9488 13.0127C84.2047 12.449 83.28 12.177 82.3491 12.2481ZM82.6295 21.398H77.1243V27.3875H82.604C84.9871 27.3875 86.185 26.3935 86.185 24.3927C86.2087 23.9786 86.1371 23.5646 85.9759 23.1824C85.8146 22.8002 85.5679 22.4601 85.2547 22.1881C84.5025 21.6188 83.5709 21.3384 82.6295 21.398Z" fill="white"/>
<path d="M106.957 23.8448H94.7486C94.8278 24.991 95.3215 26.0691 96.1377 26.8777C96.8704 27.5102 97.7817 27.8991 98.7453 27.9904C99.7089 28.0817 100.677 27.871 101.515 27.3875C102.169 27.004 102.679 26.4178 102.968 25.7181H106.677C106.213 27.3024 105.241 28.6904 103.911 29.6686C102.524 30.6747 100.846 31.1984 99.1324 31.1596C98.0534 31.1963 96.9788 31.004 95.9794 30.5955C94.98 30.1869 94.0784 29.5714 93.3341 28.7893C91.8468 27.1411 91.0565 24.9804 91.1295 22.7616C91.0639 20.5583 91.8645 18.4172 93.3596 16.7976C94.0866 16.0045 94.9768 15.3786 95.969 14.9628C96.9612 14.547 98.0318 14.3512 99.1069 14.389C100.17 14.3471 101.23 14.5362 102.214 14.9432C103.197 15.3502 104.081 15.9654 104.803 16.7466C106.299 18.3618 107.104 20.4975 107.046 22.6978L106.957 23.8448ZM99.1069 17.3838C98.0519 17.3428 97.0212 17.7077 96.2269 18.4033C95.4455 19.1094 94.9435 20.0726 94.8124 21.1176H103.338C103.212 20.0764 102.72 19.1141 101.949 18.4033C101.17 17.7077 100.151 17.3422 99.1069 17.3838Z" fill="white"/>
<path d="M110.665 12.0697C110.359 12.0806 110.053 12.0298 109.766 11.9203C109.479 11.8109 109.217 11.645 108.996 11.4325C108.777 11.2247 108.603 10.9734 108.487 10.6947C108.371 10.416 108.314 10.116 108.321 9.81407C108.315 9.5081 108.372 9.20424 108.489 8.9214C108.606 8.63856 108.78 8.38279 109 8.17001C109.22 7.95724 109.481 7.79201 109.768 7.6846C110.054 7.5772 110.36 7.52992 110.665 7.54571C110.967 7.53728 111.268 7.59058 111.548 7.70233C111.829 7.81409 112.083 7.98195 112.297 8.19563C112.514 8.41431 112.684 8.6754 112.795 8.96263C112.907 9.24986 112.959 9.55706 112.946 9.86505C112.956 10.1651 112.903 10.4639 112.792 10.7426C112.68 11.0212 112.511 11.2735 112.297 11.4835C112.077 11.6839 111.819 11.8389 111.54 11.9395C111.26 12.0401 110.962 12.0844 110.665 12.0697ZM108.805 30.79V14.7586H112.488V30.79H108.805Z" fill="#00B1FF"/>
<path d="M118.783 14.7586V16.8868C119.218 16.1296 119.859 15.511 120.631 15.1027C121.586 14.6071 122.652 14.3615 123.728 14.389C124.543 14.3404 125.36 14.469 126.121 14.766C126.882 15.063 127.57 15.5213 128.137 16.1094C129.223 17.3936 129.779 19.0431 129.692 20.7226V30.79H126.021V21.1814C126.074 20.2249 125.795 19.2795 125.231 18.5052C124.934 18.1691 124.563 17.9066 124.148 17.7386C123.732 17.5705 123.283 17.5014 122.836 17.5367C122.327 17.508 121.818 17.5862 121.342 17.7662C120.866 17.9462 120.433 18.224 120.07 18.5817C119.72 18.976 119.45 19.4357 119.278 19.9342C119.105 20.4328 119.032 20.9605 119.063 21.4872V30.79H115.393V14.7586H118.783Z" fill="#00B1FF"/>
<path d="M76.3342 44.1326C75.3882 44.1956 74.4526 43.9049 73.709 43.317C73.4193 43.0492 73.1857 42.7265 73.0217 42.3678C72.8576 42.009 72.7664 41.6213 72.7532 41.227H74.6265C74.6279 41.4125 74.6738 41.5949 74.7602 41.759C74.8467 41.9231 74.9713 42.0641 75.1235 42.1701C75.4993 42.3849 75.9211 42.5063 76.3536 42.524C76.786 42.5417 77.2164 42.4553 77.6085 42.272C77.7302 42.2003 77.8308 42.0977 77.9002 41.9746C77.9695 41.8516 78.0052 41.7124 78.0036 41.5711C78.0056 41.4136 77.959 41.2593 77.8701 41.1292C77.7811 40.9992 77.6541 40.8999 77.5066 40.8447C77.1224 40.6741 76.7207 40.5459 76.3087 40.4624L74.8686 40.1566C74.3578 40.0664 73.8989 39.7894 73.5809 39.3796C73.2629 38.9698 73.1087 38.4564 73.1483 37.9392C73.1506 37.5749 73.2355 37.2159 73.3967 36.8893C73.5578 36.5626 73.7909 36.2767 74.0785 36.0531C74.7581 35.5243 75.6009 35.2494 76.4616 35.2758C76.9811 35.2631 77.4975 35.3585 77.9781 35.5561C78.3749 35.7006 78.7296 35.9415 79.0103 36.257C79.2413 36.5265 79.4265 36.8322 79.5583 37.1618C79.6837 37.4533 79.7612 37.7632 79.7877 38.0794H77.9781C77.9501 37.7493 77.7947 37.443 77.5448 37.2255C77.2466 36.9644 76.8573 36.8316 76.4616 36.856C76.0855 36.8307 75.7111 36.9243 75.3911 37.1236C75.2699 37.198 75.1706 37.3033 75.1034 37.4287C75.0363 37.5541 75.0036 37.6951 75.0088 37.8372C75.0159 37.985 75.0688 38.127 75.1601 38.2434C75.2514 38.3599 75.3767 38.445 75.5186 38.4872C75.9304 38.6512 76.3572 38.7749 76.7929 38.8567L78.2202 39.1753C78.7186 39.2726 79.1684 39.538 79.4946 39.9272C79.8335 40.3774 80.0047 40.9317 79.9788 41.4946C79.9769 41.863 79.8882 42.2257 79.7199 42.5534C79.5516 42.8811 79.3085 43.1645 79.0103 43.3807C78.2343 43.938 77.2868 44.2042 76.3342 44.1326Z" fill="white"/>
<path d="M81.5591 47.293L82.9609 43.7885L79.5838 35.4797H81.661L83.9039 41.4437L86.2869 35.4797H88.3004L83.4833 47.3185L81.5591 47.293Z" fill="white"/>
<path d="M91.6265 44.1326C90.6805 44.1956 89.7449 43.9049 89.0013 43.317C88.7116 43.0492 88.478 42.7265 88.314 42.3678C88.1499 42.009 88.0587 41.6213 88.0455 41.227H89.9188C89.9247 41.413 89.9738 41.5951 90.0623 41.7587C90.1508 41.9224 90.2762 42.0633 90.4286 42.1701C90.8035 42.4239 91.2507 42.5491 91.7029 42.5269C92.1059 42.5544 92.5083 42.4659 92.8626 42.272C92.9858 42.2009 93.0882 42.0988 93.1598 41.9758C93.2313 41.8529 93.2694 41.7134 93.2704 41.5711C93.2725 41.4136 93.2258 41.2593 93.1369 41.1292C93.0479 40.9992 92.921 40.8999 92.7734 40.8447C92.3644 40.6697 91.9369 40.5414 91.499 40.4624L90.0717 40.1566C89.5609 40.0664 89.1019 39.7894 88.784 39.3796C88.466 38.9698 88.3118 38.4564 88.3514 37.9392C88.3513 37.5758 88.4338 37.2172 88.5928 36.8904C88.7517 36.5637 88.9829 36.2773 89.2689 36.0531C89.9755 35.5011 90.8587 35.2249 91.7539 35.2758C92.2775 35.2635 92.798 35.3589 93.2831 35.5561C93.6754 35.7025 94.0255 35.9432 94.3026 36.257C94.5372 36.5263 94.7266 36.8319 94.8633 37.1618C94.9848 37.4539 95.058 37.7638 95.08 38.0794H93.2704C93.2457 37.7511 93.095 37.4452 92.8498 37.2255C92.547 36.9636 92.1535 36.8309 91.7539 36.856C91.3739 36.8323 90.9959 36.9257 90.6707 37.1236C90.5536 37.2014 90.4582 37.3077 90.3936 37.4326C90.3289 37.5574 90.2971 37.6967 90.3011 37.8372C90.3073 37.9835 90.3583 38.1242 90.4472 38.2405C90.5361 38.3568 90.6586 38.4429 90.7981 38.4872C91.1901 38.6455 91.5952 38.7692 92.0088 38.8567L93.4488 39.1753C93.9494 39.2665 94.4012 39.5331 94.7232 39.9272C95.1036 40.449 95.2718 41.0958 95.1938 41.7369C95.1157 42.3779 94.7972 42.9654 94.3026 43.3807C93.5252 43.935 92.5788 44.2009 91.6265 44.1326Z" fill="white"/>
<path d="M99.8971 42.2083V43.8904C99.562 43.9607 99.2197 43.9907 98.8776 43.9796C98.5346 44.0292 98.1848 43.9967 97.8568 43.8849C97.5289 43.7731 97.2321 43.5851 96.9908 43.3364C96.7495 43.0877 96.5707 42.7853 96.4689 42.4541C96.3671 42.1228 96.3453 41.7722 96.4053 41.4309V37.0216H95.131V35.4797H96.4053V33.275H98.3423V35.4797H99.9225V37.0216H98.3423V41.2907C98.3423 41.9534 98.6609 42.2847 99.2854 42.2847L99.8971 42.2083Z" fill="white"/>
<path d="M108.321 40.2713H101.949C101.992 40.8758 102.25 41.4451 102.675 41.877C103.12 42.2806 103.706 42.4914 104.306 42.4632C104.732 42.4713 105.151 42.361 105.517 42.1446C105.861 41.9431 106.13 41.6342 106.282 41.2653H108.231C107.989 42.0989 107.479 42.8291 106.779 43.3425C106.039 43.8789 105.143 44.1566 104.23 44.1326C103.66 44.1541 103.092 44.0513 102.566 43.8312C102.041 43.6111 101.569 43.2791 101.184 42.8582C100.392 41.9955 99.9707 40.8557 100.012 39.6851C99.9815 38.5238 100.402 37.3959 101.184 36.5374C101.569 36.1209 102.04 35.7916 102.563 35.5718C103.086 35.352 103.65 35.2467 104.217 35.263C104.781 35.2462 105.341 35.3514 105.86 35.5713C106.379 35.7913 106.845 36.1208 107.225 36.5374C107.978 37.3984 108.37 38.5166 108.321 39.6596V40.2713ZM104.128 36.856C103.572 36.8419 103.03 37.0375 102.611 37.404C102.203 37.7785 101.938 38.2829 101.86 38.8312H106.358C106.299 38.2854 106.045 37.779 105.644 37.404C105.228 37.033 104.685 36.8367 104.128 36.856Z" fill="white"/>
<path d="M116.604 39.0734V43.9287H114.692V38.8312C114.692 37.5569 114.157 36.9069 113.099 36.9069C112.844 36.8944 112.589 36.9368 112.352 37.0313C112.114 37.1259 111.9 37.2703 111.723 37.4549C111.364 37.8756 111.181 38.419 111.213 38.9714V43.8904H109.238V35.4797H111.035V36.6011C111.254 36.2038 111.581 35.8768 111.978 35.6581C112.46 35.3886 113.006 35.2564 113.558 35.2758C114.059 35.2325 114.562 35.3287 115.012 35.5536C115.462 35.7785 115.841 36.1234 116.107 36.5501C116.452 36.128 116.891 35.7927 117.389 35.5713C117.887 35.35 118.43 35.2487 118.974 35.2758C119.4 35.2525 119.825 35.3238 120.219 35.4847C120.614 35.6456 120.968 35.8919 121.255 36.206C121.805 36.8896 122.086 37.7508 122.045 38.6273V43.9287H120.108V38.8312C120.108 37.5569 119.573 36.9069 118.515 36.9069C118.257 36.8941 117.999 36.9376 117.759 37.0345C117.519 37.1313 117.303 37.2791 117.126 37.4677C116.747 37.913 116.56 38.4902 116.604 39.0734Z" fill="white"/>
<path d="M126.404 44.1326C125.458 44.1956 124.522 43.9049 123.779 43.317C123.195 42.774 122.847 42.0236 122.81 41.227H124.683C124.689 41.413 124.738 41.5951 124.827 41.7588C124.915 41.9224 125.041 42.0633 125.193 42.1701C125.569 42.4214 126.016 42.5464 126.467 42.5269C126.866 42.5548 127.265 42.4663 127.614 42.272C127.739 42.2029 127.843 42.1013 127.915 41.9779C127.987 41.8545 128.024 41.7139 128.022 41.5711C128.024 41.4136 127.978 41.2593 127.889 41.1292C127.8 40.9992 127.673 40.8999 127.525 40.8447C127.141 40.6741 126.739 40.5459 126.327 40.4624L124.887 40.1566C124.376 40.0664 123.917 39.7894 123.6 39.3796C123.282 38.9698 123.127 38.4564 123.167 37.9392C123.166 37.5744 123.25 37.2145 123.411 36.8873C123.573 36.5602 123.807 36.2747 124.097 36.0531C124.79 35.5129 125.653 35.2373 126.531 35.2758C127.051 35.2631 127.567 35.3585 128.048 35.5561C128.445 35.7006 128.799 35.9415 129.08 36.257C129.311 36.5265 129.496 36.8322 129.628 37.1618C129.753 37.4533 129.831 37.7632 129.857 38.0794H127.997C127.969 37.7493 127.813 37.443 127.563 37.2256C127.265 36.9644 126.876 36.8316 126.48 36.856C126.104 36.8307 125.73 36.9243 125.41 37.1236C125.289 37.198 125.189 37.3033 125.122 37.4287C125.055 37.5541 125.022 37.6951 125.027 37.8372C125.035 37.9851 125.087 38.127 125.179 38.2434C125.27 38.3599 125.395 38.4451 125.537 38.4872C125.949 38.6512 126.376 38.775 126.812 38.8567L128.239 39.1753C128.737 39.2726 129.187 39.5381 129.513 39.9272C129.852 40.3774 130.023 40.9317 129.997 41.4947C130.001 41.8587 129.921 42.2186 129.761 42.546C129.602 42.8733 129.369 43.1591 129.08 43.3807C128.304 43.938 127.356 44.2042 126.404 44.1326Z" fill="white"/>
</svg>
